<?xml version="1.0" encoding="utf-8"?>
<!-- Generator: Adobe Illustrator 23.0.0, SVG Export Plug-In . SVG Version: 6.00 Build 0)  -->
<svg version="1.1" xmlns="http://www.w3.org/2000/svg" xmlns:xlink="http://www.w3.org/1999/xlink" x="0px" y="0px"
	 viewBox="0 0 1200 800" style="enable-background:new 0 0 1200 800;" xml:space="preserve">
<style type="text/css">
	.st0{display:none;}
	.st1{display:inline;}
	.st2{fill:#00214E;}
	.st3{fill:#0399E2;}
	.st4{fill:#00204E;}
	.st5{fill:#009AE4;}
	.st6{font-family:'Poppins-BlackItalic';}
	.st7{font-size:60px;}
	.st8{letter-spacing:28;}
	.st9{fill:#FFFFFF;}
</style>
<g id="Layer_1" class="st0">
	
		<image style="display:inline;overflow:visible;" width="359" height="225" xlink:href="../Downloads/logouplh.png"  transform="matrix(1.9192 0 0 1.9192 217 142)">
	</image>
</g>
<g id="Layer_2" class="st0">
	<g class="st1">
		<g>
			<g>
				<path class="st2" d="M562,466.7H283.2c-3.1,0-5.4-2.8-4.9-5.8l42.3-254c0.4-2.4,2.5-4.2,4.9-4.2h278.9c3.1,0,5.4,2.8,4.9,5.8
					l-42.3,254C566.6,464.9,564.5,466.7,562,466.7z"/>
				<g>
					<path class="st3" d="M385.3,408.2L385.3,408.2c-14.9,0-26.2-13.4-23.6-28.1l21.4-122.9h48.7l-22.9,131.1
						C406.9,399.8,396.9,408.2,385.3,408.2z"/>
					<path class="st3" d="M531.4,275.6L531.4,275.6c3.8,14.4-6.4,28.7-21.2,29.9l-132.3-1.8l5.7-47.1l122.7,1.1
						C517.9,256.7,528.5,264.3,531.4,275.6z"/>
					<path class="st3" d="M479,399.9l-37.5-37.5c-8-8-8-21,0-29l0,0c8-8,21-8,29,0l37.5,37.5c8,8,8,21,0,29l0,0
						C500,407.9,487,407.9,479,399.9z"/>
				</g>
			</g>
			<g>
				<path class="st4" d="M669.5,466.2h-63.9c-3.1,0-5.4-2.8-4.9-5.8l42.3-254c0.4-2.4,2.5-4.2,4.9-4.2h63.9c3.1,0,5.4,2.8,4.9,5.8
					l-42.3,254C674.1,464.4,672,466.2,669.5,466.2z"/>
				<path class="st4" d="M874.5,466.2h-63.9c-3.1,0-5.4-2.8-4.9-5.8l42.3-254c0.4-2.4,2.5-4.2,4.9-4.2h63.9c3.1,0,5.4,2.8,4.9,5.8
					l-42.3,254C879.1,464.4,877,466.2,874.5,466.2z"/>
				<path class="st5" d="M772.5,466.2h-63.9c-3.1,0-5.4-1.5-4.9-3.2l22.3-139.6c0.4-1.3,2.5-2.3,4.9-2.3h63.9c3.1,0,5.4,1.5,4.9,3.2
					l-22.3,139.6C777.1,465.2,775,466.2,772.5,466.2z"/>
			</g>
		</g>
		<text transform="matrix(1 0 0 1 282.3318 560.1899)" class="st2 st6 st7 st8">RAND WALK</text>
	</g>
</g>
<g id="Layer_3">
	<g>
		<g>
			<g>
				<path class="st9" d="M562,466.7H283.2c-3.1,0-5.4-2.8-4.9-5.8l42.3-254c0.4-2.4,2.5-4.2,4.9-4.2h278.9c3.1,0,5.4,2.8,4.9,5.8
					l-42.3,254C566.6,464.9,564.5,466.7,562,466.7z"/>
				<g>
					<path class="st3" d="M385.3,408.2L385.3,408.2c-14.9,0-26.2-13.4-23.6-28.1l21.4-122.9h48.7l-22.9,131.1
						C406.9,399.8,396.9,408.2,385.3,408.2z"/>
					<path class="st3" d="M531.4,275.6L531.4,275.6c3.8,14.4-6.4,28.7-21.2,29.9l-132.3-1.8l5.7-47.1l122.7,1.1
						C517.9,256.7,528.5,264.3,531.4,275.6z"/>
					<path class="st3" d="M479,399.9l-37.5-37.5c-8-8-8-21,0-29l0,0c8-8,21-8,29,0l37.5,37.5c8,8,8,21,0,29l0,0
						C500,407.9,487,407.9,479,399.9z"/>
				</g>
			</g>
			<g>
				<path class="st9" d="M669.5,466.2h-63.9c-3.1,0-5.4-2.8-4.9-5.8l42.3-254c0.4-2.4,2.5-4.2,4.9-4.2h63.9c3.1,0,5.4,2.8,4.9,5.8
					l-42.3,254C674.1,464.4,672,466.2,669.5,466.2z"/>
				<path class="st9" d="M874.5,466.2h-63.9c-3.1,0-5.4-2.8-4.9-5.8l42.3-254c0.4-2.4,2.5-4.2,4.9-4.2h63.9c3.1,0,5.4,2.8,4.9,5.8
					l-42.3,254C879.1,464.4,877,466.2,874.5,466.2z"/>
				<path class="st5" d="M772.5,466.2h-63.9c-3.1,0-5.4-1.5-4.9-3.2l22.3-139.6c0.4-1.3,2.5-2.3,4.9-2.3h63.9c3.1,0,5.4,1.5,4.9,3.2
					l-22.3,139.6C777.1,465.2,775,466.2,772.5,466.2z"/>
			</g>
		</g>
		<text transform="matrix(1 0 0 1 282.3318 560.1897)" class="st9 st6 st7 st8">RAND WALK</text>
	</g>
</g>
</svg>
